<svg xmlns="http://www.w3.org/2000/svg" viewBox="0 0 64 64" role="img" aria-label="Animal face test favicon">
  <defs>
    <linearGradient id="bg" x1="12" y1="10" x2="52" y2="56" gradientUnits="userSpaceOnUse">
      <stop offset="0" stop-color="#fff7ef"/>
      <stop offset="1" stop-color="#f2c49e"/>
    </linearGradient>
    <linearGradient id="face" x1="18" y1="16" x2="46" y2="48" gradientUnits="userSpaceOnUse">
      <stop offset="0" stop-color="#ffdfc2"/>
      <stop offset="1" stop-color="#db6b3f"/>
    </linearGradient>
  </defs>
  <rect x="4" y="4" width="56" height="56" rx="18" fill="url(#bg)"/>
  <path d="M22 19 15 31c-1 2 1 5 4 4l10-4Z" fill="#bf4c2d"/>
  <path d="M42 19 49 31c1 2-1 5-4 4l-10-4Z" fill="#bf4c2d"/>
  <path d="M32 16c-11 0-19 8-19 19 0 11 8 19 19 19s19-8 19-19c0-11-8-19-19-19Z" fill="url(#face)"/>
  <path d="M23 23c2-5 6-8 9-8s7 3 9 8" fill="none" stroke="#fff4ea" stroke-linecap="round" stroke-width="3"/>
  <circle cx="24.5" cy="33" r="2.7" fill="#25160f"/>
  <circle cx="39.5" cy="33" r="2.7" fill="#25160f"/>
  <path d="M32 36.5l-3 3h6Z" fill="#25160f"/>
  <path d="M26 42c1.8 2.7 3.9 4 6 4s4.2-1.3 6-4" fill="none" stroke="#25160f" stroke-linecap="round" stroke-width="2.8"/>
  <path d="M19 37h8M17 40h9M37 37h8M38 40h9" fill="none" stroke="#fff4ea" stroke-linecap="round" stroke-width="2"/>
</svg>
